# xmcd
# Track frame offsets:
# 150
# 13896
# 32231
# 49845
# 62907
# 80775
# 95492
# 110890
# 128905
# 150056
# 163448
# 184586
# 201657
# 220885
#
# Disc length: 3169 seconds
# Revision: 0
# Processed by: cddbd v1.5.1PL0 Copyright (c) Steve Scherf et al.
# Submitted via: VisiTrax 2.9.10.228 - For more info visit www.synapsa.com
#
DISCID=d10c5f0e
DTITLE=Adam Brand - Get Loud
DYEAR=1900
DGENRE=
TTITLE0=We're Malin' Up
TTITLE1=Infinity
TTITLE2=Get Loud
TTITLE3=Number34
TTITLE4=This Time Of Year
TTITLE5=Food, Water, Shelter, Love
TTITLE6=Eighteen
TTITLE7=Cowboy Tequila
TTITLE8=Impossible To Do
TTITLE9=Lifetime Friends
TTITLE10=Just Drive
TTITLE11=Senoritas
TTITLE12=Come On Home
TTITLE13=She's Country
EXTD=
EXTT0=
EXTT1=
EXTT2=
EXTT3=
EXTT4=
EXTT5=
EXTT6=
EXTT7=
EXTT8=
EXTT9=
EXTT10=
EXTT11=
EXTT12=
EXTT13=
PLAYORDER=
